<svg width="34" height="29" viewBox="0 0 34 29" fill="none" xmlns="http://www.w3.org/2000/svg">
<path d="M31.9127 13.1293C31.8309 13.1293 31.7491 13.138 31.6731 13.1524L25.325 2.14209C25.5296 1.91433 25.6582 1.61738 25.6582 1.28872C25.6582 0.576607 25.0737 0 24.3518 0C23.7818 0 23.3025 0.363262 23.1242 0.86491H10.3054C10.1271 0.363262 9.64777 0 9.07784 0C8.35594 0 7.77141 0.576607 7.77141 1.28872C7.77141 1.60585 7.89124 1.89127 8.08413 2.11615L1.55779 13.2533C1.47595 13.2389 1.39412 13.2274 1.30644 13.2274C0.584536 13.2302 0 13.8068 0 14.519C0 15.2311 0.584536 15.8077 1.30644 15.8077C1.38535 15.8077 1.46426 15.799 1.54025 15.7846L8.09875 26.7978C7.89416 27.0256 7.76848 27.3196 7.76848 27.6483C7.76848 28.3604 8.35302 28.937 9.07492 28.937C9.65069 28.937 10.1329 28.568 10.3083 28.0577L23.285 27.9943C23.4691 28.4844 23.9455 28.8361 24.5067 28.8361C25.2286 28.8361 25.8131 28.2595 25.8131 27.5474C25.8131 27.2245 25.6874 26.9304 25.4887 26.7055L31.6994 15.6895C31.7695 15.701 31.8397 15.7097 31.9098 15.7097C32.6317 15.7097 33.2163 15.133 33.2163 14.4209C33.2192 13.7059 32.6346 13.1293 31.9127 13.1293ZM30.6063 14.3921L27.1985 15.505C27.0202 15.2714 26.763 15.1013 26.4649 15.0293L25.0532 3.41351L30.919 13.5849C30.732 13.8068 30.6122 14.0865 30.6063 14.3921ZM24.2466 26.2817C23.89 26.3509 23.589 26.5672 23.4019 26.8583L12.6464 24.4539C12.6406 24.4078 12.6406 24.3587 12.6318 24.3155L25.3046 17.2463C25.3835 17.3155 25.4712 17.3732 25.5676 17.4222L24.2466 26.2817ZM2.5778 14.2278L10.621 9.1075C10.7262 9.18534 10.8402 9.24877 10.9659 9.29202L10.9133 23.3728C10.8724 23.3872 10.8344 23.4016 10.7964 23.4189L2.47843 15.0811C2.56319 14.911 2.6158 14.7208 2.6158 14.519C2.61288 14.4181 2.59826 14.32 2.5778 14.2278ZM23.475 2.24012C23.6416 2.39003 23.8432 2.49959 24.0712 2.5486L25.5998 15.1244C25.4975 15.1734 25.4039 15.2339 25.3192 15.306L12.6874 8.31179C12.702 8.23683 12.7107 8.16187 12.7107 8.08403C12.7107 8.0206 12.702 7.96006 12.6932 7.89951L23.475 2.24012ZM12.173 23.5832C12.059 23.491 11.9304 23.4189 11.7872 23.3699L11.8398 9.29202C11.9947 9.23724 12.132 9.15651 12.2548 9.05561L24.8808 16.0441C24.8662 16.1219 24.8574 16.1998 24.8574 16.2805C24.8574 16.3554 24.8662 16.4275 24.8808 16.4967L12.173 23.5832ZM12.2869 7.13551C12.0531 6.92505 11.7463 6.79243 11.4043 6.79243C11.3751 6.79243 11.3458 6.79819 11.3166 6.80108L9.77637 2.37562C10.0189 2.22282 10.2031 1.99506 10.3024 1.72405H22.5982L12.2869 7.13551ZM9.07492 2.57743C9.10123 2.57743 9.12461 2.57167 9.15091 2.56878L10.6941 7.00001C10.3346 7.23065 10.0979 7.62562 10.0979 8.08114C10.0979 8.18782 10.1154 8.28872 10.1388 8.38674L2.60703 13.1841L8.83234 2.55437C8.91125 2.56878 8.99309 2.57743 9.07492 2.57743ZM10.1768 24.0272C10.0949 24.1944 10.0453 24.3818 10.0453 24.5807C10.0453 24.8892 10.1592 25.1689 10.3434 25.3909L9.56009 26.4518C9.41103 26.3913 9.24736 26.3567 9.07492 26.3567C9.00185 26.3567 8.93171 26.3653 8.86157 26.3769L3.43707 17.2723L10.1768 24.0272ZM10.0832 26.8382L10.8694 25.7772C11.0185 25.8349 11.1822 25.8695 11.3517 25.8695C11.8076 25.8695 12.208 25.6388 12.4418 25.29L20.7306 27.1409L10.2937 27.1928C10.244 27.063 10.1738 26.9448 10.0832 26.8382ZM26.4327 17.5433C27.0085 17.4222 27.441 16.9292 27.4644 16.3295L30.8898 15.2109C30.9073 15.2311 30.922 15.2512 30.9395 15.2714L25.2753 25.3102L26.4327 17.5433Z" fill="url(#paint0_linear_1761_1952)"/>
<defs>
<linearGradient id="paint0_linear_1761_1952" x1="0" y1="14.4679" x2="33.2187" y2="14.4679" gradientUnits="userSpaceOnUse">
<stop stop-color="#29235C"/>
<stop offset="1" stop-color="#00ABD0"/>
</linearGradient>
</defs>
</svg>
