<svg width="701" height="140" viewBox="0 0 701 140" fill="none" xmlns="http://www.w3.org/2000/svg">
<path d="M153.364 63.0958C152.97 63.0958 152.577 63.1374 152.212 63.2067L121.705 10.2943C122.688 9.19974 123.306 7.77267 123.306 6.1932C123.306 2.77101 120.497 0 117.028 0C114.289 0 111.985 1.74573 111.129 4.15651H49.5247C48.6679 1.74573 46.3644 0 43.6255 0C40.1563 0 37.3472 2.77101 37.3472 6.1932C37.3472 7.71725 37.923 9.0889 38.85 10.1696L7.48629 63.6916C7.09301 63.6223 6.69973 63.5669 6.27837 63.5669C2.80911 63.5807 0 66.3518 0 69.7739C0 73.1961 2.80911 75.9671 6.27837 75.9671C6.6576 75.9671 7.03683 75.9256 7.40201 75.8563L38.9203 128.783C37.9371 129.877 37.3331 131.29 37.3331 132.87C37.3331 136.292 40.1422 139.063 43.6115 139.063C46.3785 139.063 48.696 137.29 49.5387 134.837L111.901 134.532C112.786 136.888 115.075 138.578 117.772 138.578C121.241 138.578 124.05 135.807 124.05 132.385C124.05 130.833 123.446 129.42 122.491 128.339L152.338 75.3991C152.675 75.4545 153.012 75.4961 153.349 75.4961C156.819 75.4961 159.628 72.7251 159.628 69.3029C159.642 65.8668 156.833 63.0958 153.364 63.0958ZM147.085 69.1643L130.708 74.5124C129.851 73.3901 128.615 72.5727 127.183 72.2263L120.399 16.4044L148.588 65.2849C147.689 66.3518 147.113 67.6957 147.085 69.1643ZM116.522 126.302C114.808 126.635 113.362 127.674 112.463 129.073L60.7752 117.518C60.7471 117.297 60.7471 117.061 60.7049 116.853L121.606 82.8808C121.986 83.2133 122.407 83.4904 122.871 83.726L116.522 126.302ZM12.3882 68.3746L51.0416 43.768C51.5472 44.1421 52.095 44.4469 52.699 44.6548L52.4461 112.323C52.2495 112.392 52.0669 112.461 51.8843 112.544L11.9106 72.4757C12.318 71.6582 12.5708 70.7438 12.5708 69.7739C12.5567 69.289 12.4865 68.8179 12.3882 68.3746ZM112.814 10.7654C113.615 11.4858 114.584 12.0123 115.679 12.2478L123.025 72.6835C122.533 72.919 122.084 73.21 121.677 73.5564L60.9718 39.9441C61.042 39.5838 61.0842 39.2236 61.0842 38.8495C61.0842 38.5447 61.042 38.2537 60.9999 37.9628L112.814 10.7654ZM58.4998 113.334C57.952 112.891 57.334 112.544 56.6458 112.309L56.8986 44.6548C57.643 44.3915 58.3031 44.0036 58.8931 43.5187L119.57 77.1033C119.5 77.4773 119.458 77.8514 119.458 78.2394C119.458 78.5996 119.5 78.946 119.57 79.2785L58.4998 113.334ZM59.0476 34.2912C57.9239 33.2798 56.4491 32.6425 54.8058 32.6425C54.6653 32.6425 54.5249 32.6702 54.3844 32.684L46.9824 11.4165C48.1482 10.6822 49.0331 9.58768 49.5106 8.28531H108.6L59.0476 34.2912ZM43.6115 12.3864C43.7379 12.3864 43.8502 12.3587 43.9767 12.3448L51.3927 33.64C49.6651 34.7484 48.5274 36.6466 48.5274 38.8357C48.5274 39.3483 48.6117 39.8332 48.7241 40.3043L12.5286 63.3591L42.4457 12.2756C42.8249 12.3448 43.2182 12.3864 43.6115 12.3864ZM48.9067 115.468C48.5134 116.271 48.2746 117.172 48.2746 118.128C48.2746 119.611 48.8224 120.954 49.7072 122.021L45.943 127.12C45.2267 126.829 44.4402 126.663 43.6115 126.663C43.2603 126.663 42.9232 126.704 42.5861 126.76L16.5176 83.0055L48.9067 115.468ZM48.4572 128.976L52.2355 123.878C52.9518 124.155 53.7383 124.321 54.553 124.321C56.7441 124.321 58.6683 123.213 59.792 121.536L99.6252 130.431L49.4685 130.681C49.2297 130.057 48.8926 129.489 48.4572 128.976ZM127.028 84.3079C129.795 83.726 131.874 81.3568 131.986 78.4749L148.448 73.0992C148.532 73.1961 148.602 73.2931 148.686 73.3901L121.466 121.633L127.028 84.3079Z" fill="url(#paint0_linear_1718_2334)"/>
<path d="M233.817 73.7L210.856 63.3553C204.171 60.3404 200.77 56.1196 200.77 50.8059C200.77 43.1181 206.31 39.9713 219.892 39.9713C228.144 39.9713 235.842 41.1396 242.776 43.4007C244.609 43.9471 245.813 43.9848 246.462 43.5138C247.112 43.0427 247.437 41.8556 247.437 39.9148V38.3131C247.437 34.6953 246.749 33.8851 242.604 32.5095C236.09 30.2484 228.774 29.1555 220.274 29.1555C198.727 29.1555 189.118 35.8259 189.118 50.7871C189.118 63.148 194.62 68.0471 205.45 73.2289L227.513 83.5736C235.632 87.4176 239.758 90.5643 239.758 97.1782C239.758 106.355 231.888 108.201 219.185 108.201C210.15 108.201 201.133 106.995 192.366 104.602C191.525 104.433 190.799 104.338 190.226 104.338C189.481 104.338 188.946 104.489 188.603 104.772C187.953 105.281 187.667 106.449 187.667 108.427V109.859C187.667 112.931 188.392 114.419 192.824 115.644C201 117.868 209.5 118.998 218.096 118.998C241.152 118.998 251.429 112.158 251.429 96.8202C251.429 84.1766 245.488 79.1079 233.817 73.7Z" fill="#1C1C35"/>
<path d="M299.679 29.1748C274.579 29.1748 262.373 41.2154 262.373 65.9749V82.5754C262.373 108.126 274.617 119.017 303.289 119.017C312.095 119.017 320.348 117.887 327.816 115.663C332.363 114.326 332.821 113.402 332.821 110.048V108.447C332.821 106.355 332.477 105.093 331.79 104.565C331.14 104.075 329.937 104.094 328.141 104.603C319.679 106.902 311.561 108.032 303.309 108.032C282.659 108.032 274.235 101.211 274.235 84.5351V78.3358H329.707C334.082 78.3358 334.865 77.6574 335.362 73.5497V73.512C335.725 71.2697 335.897 68.0664 335.897 64.0152C335.897 41.2154 323.385 29.1748 299.679 29.1748ZM324.779 68.7825H274.235V62.0556C274.235 47.0567 282.736 39.4442 299.507 39.4442C316.279 39.4442 324.779 47.0567 324.779 62.0556V68.7825V68.7825Z" fill="#1C1C35"/>
<path d="M384.169 29.1748C359.069 29.1748 346.863 41.2154 346.863 65.9749V82.5754C346.863 108.126 359.107 119.017 387.779 119.017C396.585 119.017 404.837 117.887 412.306 115.663C416.852 114.326 417.311 113.402 417.311 110.048V108.447C417.311 106.355 416.967 105.093 416.279 104.565C415.611 104.075 414.426 104.094 412.612 104.603C404.169 106.902 396.05 108.032 387.779 108.032C367.13 108.032 358.706 101.211 358.706 84.5351V78.3358H414.178C418.552 78.3358 419.336 77.6574 419.832 73.5497V73.5309C420.195 71.2697 420.367 68.0853 420.367 64.0152C420.386 41.2154 407.874 29.1748 384.169 29.1748ZM409.269 68.7825H358.725V62.0556C358.725 47.0567 367.225 39.4442 383.997 39.4442C400.769 39.4442 409.269 47.0567 409.269 62.0556V68.7825Z" fill="#1C1C35"/>
<path d="M532.019 34.9219V36.7119C532.019 38.747 531.771 39.8587 531.217 40.3109C530.663 40.782 529.517 40.8574 527.339 40.4993L526.46 40.424C524.665 40.2732 523.098 40.1413 521.666 40.1413C508.734 40.1413 503.442 45.8696 503.442 59.8886V112.347C503.442 116.7 502.927 117.209 498.514 117.209H496.527C492.535 117.209 491.599 116.756 491.599 112.347V59.1915C491.599 38.9919 501.437 29.1748 521.666 29.1748C523.862 29.1748 525.868 29.3632 527.358 29.5328C531.331 29.985 532.019 30.7953 532.019 34.9219ZM610.299 30.946H608.312C604.263 30.946 603.384 31.8128 603.384 35.8075V86.4759C603.384 101.965 596.393 108.013 578.475 108.013C560.653 108.013 553.375 101.776 553.375 86.4759V35.8263C553.375 31.8882 552.917 30.9649 548.447 30.9649H546.46C542.41 30.9649 541.532 31.8316 541.532 35.8263V86.4947C541.532 108.371 553.623 119.017 578.475 119.017C603.556 119.017 615.246 108.692 615.246 86.4947V35.8263C615.246 31.8693 614.788 30.946 610.299 30.946ZM700.441 64.0152C700.441 68.0664 700.269 71.2697 699.906 73.5309V73.5497C699.409 77.6574 698.607 78.3358 694.252 78.3358H638.78V84.5351C638.78 101.23 647.204 108.032 667.853 108.032C676.124 108.032 684.242 106.92 692.686 104.603C694.5 104.094 695.685 104.075 696.353 104.565C697.06 105.074 697.385 106.336 697.385 108.447V110.048C697.385 113.421 696.926 114.344 692.38 115.663C684.911 117.887 676.659 119.017 667.853 119.017C639.162 119.017 626.937 108.126 626.937 82.5754V65.9749C626.937 41.2154 639.143 29.1748 664.243 29.1748C687.929 29.1748 700.441 41.2154 700.441 64.0152ZM689.324 62.0556C689.324 47.0567 680.823 39.4442 664.052 39.4442C647.28 39.4442 638.78 47.0567 638.78 62.0556V68.7825H689.324V62.0556V62.0556ZM457.445 28.7979H455.63C451.237 28.7979 450.339 29.6836 450.339 34.0174V111.989C450.339 116.342 451.237 117.209 455.63 117.209H457.445C461.838 117.209 462.736 116.323 462.736 111.989V34.0174C462.736 29.6836 461.838 28.7979 457.445 28.7979ZM412.231 16.3805H500.845C504.894 16.3805 505.601 15.6833 505.601 11.6886V9.72898C505.601 5.7343 504.894 5.03711 500.845 5.03711H412.231C408.181 5.03711 407.474 5.7343 407.474 9.72898V11.6886C407.474 15.6833 408.2 16.3805 412.231 16.3805Z" fill="#1C1C35"/>
<defs>
<linearGradient id="paint0_linear_1718_2334" x1="0" y1="69.5286" x2="159.639" y2="69.5286" gradientUnits="userSpaceOnUse">
<stop stop-color="#29235C"/>
<stop offset="1" stop-color="#00ABD0"/>
</linearGradient>
</defs>
</svg>
