<svg width="160" height="140" viewBox="0 0 160 140" fill="none" xmlns="http://www.w3.org/2000/svg">
<path d="M153.364 63.0958C152.97 63.0958 152.577 63.1374 152.212 63.2067L121.705 10.2943C122.688 9.19974 123.306 7.77267 123.306 6.1932C123.306 2.77101 120.497 0 117.028 0C114.289 0 111.985 1.74573 111.129 4.15651H49.5247C48.6679 1.74573 46.3644 0 43.6255 0C40.1563 0 37.3472 2.77101 37.3472 6.1932C37.3472 7.71725 37.923 9.0889 38.85 10.1696L7.48629 63.6916C7.09301 63.6223 6.69973 63.5669 6.27837 63.5669C2.80911 63.5807 0 66.3518 0 69.7739C0 73.1961 2.80911 75.9671 6.27837 75.9671C6.6576 75.9671 7.03683 75.9256 7.40201 75.8563L38.9203 128.783C37.9371 129.877 37.3331 131.29 37.3331 132.87C37.3331 136.292 40.1422 139.063 43.6115 139.063C46.3785 139.063 48.696 137.29 49.5387 134.837L111.901 134.532C112.786 136.888 115.075 138.578 117.772 138.578C121.241 138.578 124.05 135.807 124.05 132.385C124.05 130.833 123.446 129.42 122.491 128.339L152.338 75.3991C152.675 75.4545 153.012 75.4961 153.349 75.4961C156.819 75.4961 159.628 72.7251 159.628 69.3029C159.642 65.8668 156.833 63.0958 153.364 63.0958ZM147.085 69.1643L130.708 74.5124C129.851 73.3901 128.615 72.5727 127.183 72.2263L120.399 16.4044L148.588 65.2849C147.689 66.3518 147.113 67.6957 147.085 69.1643ZM116.522 126.302C114.808 126.635 113.362 127.674 112.463 129.073L60.7752 117.518C60.7471 117.297 60.7471 117.061 60.7049 116.853L121.606 82.8808C121.986 83.2133 122.407 83.4904 122.871 83.726L116.522 126.302ZM12.3882 68.3746L51.0416 43.768C51.5472 44.1421 52.095 44.4469 52.699 44.6548L52.4461 112.323C52.2495 112.392 52.0669 112.461 51.8843 112.544L11.9106 72.4757C12.318 71.6582 12.5708 70.7438 12.5708 69.7739C12.5567 69.289 12.4865 68.8179 12.3882 68.3746ZM112.814 10.7654C113.615 11.4858 114.584 12.0123 115.679 12.2478L123.025 72.6835C122.533 72.919 122.084 73.21 121.677 73.5564L60.9718 39.9441C61.042 39.5838 61.0842 39.2236 61.0842 38.8495C61.0842 38.5447 61.042 38.2537 60.9999 37.9628L112.814 10.7654ZM58.4998 113.334C57.952 112.891 57.334 112.544 56.6458 112.309L56.8986 44.6548C57.643 44.3915 58.3031 44.0036 58.8931 43.5187L119.57 77.1033C119.5 77.4773 119.458 77.8514 119.458 78.2394C119.458 78.5996 119.5 78.946 119.57 79.2785L58.4998 113.334ZM59.0476 34.2912C57.9239 33.2798 56.4491 32.6425 54.8058 32.6425C54.6653 32.6425 54.5249 32.6702 54.3844 32.684L46.9824 11.4165C48.1482 10.6822 49.0331 9.58768 49.5106 8.28531H108.6L59.0476 34.2912ZM43.6115 12.3864C43.7379 12.3864 43.8502 12.3587 43.9767 12.3448L51.3927 33.64C49.6651 34.7484 48.5274 36.6466 48.5274 38.8357C48.5274 39.3483 48.6117 39.8332 48.7241 40.3043L12.5286 63.3591L42.4457 12.2756C42.8249 12.3448 43.2182 12.3864 43.6115 12.3864ZM48.9067 115.468C48.5134 116.271 48.2746 117.172 48.2746 118.128C48.2746 119.611 48.8224 120.954 49.7072 122.021L45.943 127.12C45.2267 126.829 44.4402 126.663 43.6115 126.663C43.2603 126.663 42.9232 126.704 42.5861 126.76L16.5176 83.0055L48.9067 115.468ZM48.4572 128.976L52.2355 123.878C52.9518 124.155 53.7383 124.321 54.553 124.321C56.7441 124.321 58.6683 123.213 59.792 121.536L99.6252 130.431L49.4685 130.681C49.2297 130.057 48.8926 129.489 48.4572 128.976ZM127.028 84.3079C129.795 83.726 131.874 81.3568 131.986 78.4749L148.448 73.0992C148.532 73.1961 148.602 73.2931 148.686 73.3901L121.466 121.633L127.028 84.3079Z" fill="url(#paint0_linear_1718_2288)"/>
<defs>
<linearGradient id="paint0_linear_1718_2288" x1="0" y1="69.5286" x2="159.639" y2="69.5286" gradientUnits="userSpaceOnUse">
<stop stop-color="#29235C"/>
<stop offset="1" stop-color="#00ABD0"/>
</linearGradient>
</defs>
</svg>
